<svg id="Layer_1" data-name="Layer 1" xmlns="http://www.w3.org/2000/svg" viewBox="0 0 224.96 252.82"><defs><style>.cls-1{fill:#414042;}.cls-2{fill:#231f20;}.cls-3{fill:#2d2a2b;}.cls-4{fill:#333132;}.cls-5{fill:#464547;}.cls-6{fill:#3b3b3c;}</style></defs><title>Artboard 71</title><polygon class="cls-1" points="111.68 0 0 51.68 0.09 202.62 112.21 252.82 224.96 202.49 224.87 50.85 111.68 0"/><polygon class="cls-2" points="224.96 202.49 112.21 252.82 112.18 202.56 224.96 202.49"/><polygon class="cls-3" points="112.18 202.56 112.21 252.82 0.09 202.62 112.18 202.56"/><polygon class="cls-1" points="0.09 202.62 55.67 101.69 112.18 202.56 0.09 202.62"/><polygon class="cls-4" points="224.96 202.49 112.18 202.56 168.32 101.25 224.96 202.49"/><polygon class="cls-5" points="55.67 101.69 0.09 202.62 0 51.68 55.67 101.69"/><polygon class="cls-6" points="112.18 202.56 55.67 101.69 168.32 101.25 112.18 202.56"/><polygon class="cls-2" points="224.96 202.49 168.32 101.25 224.87 50.85 224.96 202.49"/><polygon class="cls-3" points="168.32 101.25 111.68 0 224.87 50.85 168.32 101.25"/><polygon class="cls-4" points="168.32 101.25 55.67 101.69 111.68 0 168.32 101.25"/><polygon class="cls-1" points="55.67 101.69 0 51.68 111.68 0 55.67 101.69"/></svg>